<svg xmlns="http://www.w3.org/2000/svg" viewBox="0 0 511.991 511.991" width="40px" height="40px">
												<g>
													<g transform="translate(1 1)">
														<path style="fill:#607D8B;" d="M502.458,195.243v290.133c-0.028,9.414-7.653,17.039-17.067,17.067h-460.8
															c-9.414-0.028-17.039-7.653-17.067-17.067V195.243l3.584-2.731l2.133,2.731h483.499l2.133-2.731L502.458,195.243z"></path>
														<path style="fill:#CFD8DC;" d="M476.858,195.243v290.133c-0.028,9.414-7.653,17.039-17.067,17.067h-435.2
															c-9.414-0.028-17.039-7.653-17.067-17.067V195.243h463.616l2.133-2.731L476.858,195.243z"></path>
														<path style="fill:#607D8B;" d="M498.874,192.513l-2.133,2.731l-233.216,179.2h-17.067l-233.216-179.2l-2.133-2.731l81.749-63.573
															l112.469-87.296l39.339-30.549c6.054-4.779,14.596-4.779,20.651,0l39.339,30.549l112.469,87.296L498.874,192.513z"></path>
														<path style="fill:#FDD834;" d="M417.125,58.71v197.717l-25.6,19.712l-128,98.304h-17.067l-153.6-118.016V58.71
															c0.028-9.414,7.653-17.039,17.067-17.067h290.133C409.472,41.671,417.097,49.296,417.125,58.71z"></path>
														<path style="fill:#FFEB3A;" d="M391.525,58.71v217.429l-128,98.304h-17.067l-153.6-118.016V58.71
															c0.028-9.414,7.653-17.039,17.067-17.067h264.533C383.872,41.671,391.497,49.296,391.525,58.71z"></path>
														<path style="fill:#607D8B;" d="M499.13,495.446c-3.185,4.409-8.299,7.014-13.739,6.997h-460.8
															c-5.439,0.016-10.553-2.588-13.739-6.997l195.499-151.808l38.315-29.781c6.054-4.779,14.596-4.779,20.651,0l38.315,29.781
															L499.13,495.446z"></path>
													</g>
													<g>
														<path d="M511.539,193.999c-0.118-0.505-0.281-0.999-0.486-1.476c-0.244-0.452-0.529-0.881-0.853-1.28
															c-0.338-0.489-0.727-0.941-1.161-1.348c-0.137-0.119-0.196-0.282-0.341-0.393l-82.039-63.735V59.71
															c0-14.138-11.462-25.6-25.6-25.6h-92.476L271.556,5.361c-9.149-7.128-21.972-7.128-31.121,0L203.401,34.11h-92.476
															c-14.138,0-25.6,11.462-25.6,25.6v66.057L3.294,189.502c-0.145,0.111-0.205,0.273-0.341,0.393
															c-0.434,0.407-0.823,0.859-1.161,1.348c-0.324,0.399-0.61,0.828-0.853,1.28c-0.207,0.476-0.37,0.97-0.486,1.476
															c-0.178,0.555-0.295,1.127-0.35,1.707c0,0.171-0.102,0.324-0.102,0.503v290.167c0.034,2.748,0.515,5.471,1.425,8.064
															c-1.959,2.954-1.867,6.816,0.229,9.674s5.752,4.106,9.158,3.126c4.312,3.081,9.48,4.737,14.78,4.736h460.8
															c5.322-0.011,10.506-1.691,14.822-4.804c0.728,0.224,1.483,0.347,2.244,0.367c3.117,0.018,5.991-1.68,7.479-4.419
															c1.488-2.739,1.349-6.074-0.362-8.68c0.907-2.593,1.385-5.317,1.417-8.064V196.243c0-0.179-0.094-0.333-0.102-0.503
															C511.836,195.148,511.719,194.565,511.539,193.999z M250.871,18.827c2.98-2.368,7.2-2.368,10.18,0l19.686,15.283h-49.493
															L250.871,18.827z M93.858,221.843c4.713,0,8.533-3.821,8.533-8.533V59.71c0-4.713,3.821-8.533,8.533-8.533h290.133
															c4.713,0,8.533,3.821,8.533,8.533v153.6c0,4.713,3.82,8.533,8.533,8.533s8.533-3.821,8.533-8.533v-65.937l60.032,46.643
															L344.371,304.531c-3.723,2.891-4.397,8.253-1.506,11.977c2.891,3.723,8.253,4.397,11.977,1.506l140.083-108.774v272.341
															L271.539,308.09c-9.143-7.118-21.952-7.118-31.095,0L17.058,481.581V209.239l139.836,108.587
															c3.726,2.889,9.088,2.211,11.977-1.515c2.889-3.725,2.211-9.088-1.515-11.977L25.293,194.016l60.032-46.643v65.937
															C85.325,218.023,89.145,221.843,93.858,221.843z M484.275,494.91H27.708l223.164-173.346c2.982-2.354,7.19-2.354,10.172,0
															L484.275,494.91z"></path>
														<path d="M170.658,110.91h170.667c4.713,0,8.533-3.821,8.533-8.533c0-4.713-3.82-8.533-8.533-8.533H170.658
															c-4.713,0-8.533,3.821-8.533,8.533C162.125,107.089,165.945,110.91,170.658,110.91z"></path>
														<path d="M170.658,162.11h170.667c4.713,0,8.533-3.821,8.533-8.533c0-4.713-3.82-8.533-8.533-8.533H170.658
															c-4.713,0-8.533,3.821-8.533,8.533C162.125,158.289,165.945,162.11,170.658,162.11z"></path>
														<path d="M341.325,196.243h-76.8c-4.713,0-8.533,3.821-8.533,8.533s3.82,8.533,8.533,8.533h76.8c4.713,0,8.533-3.82,8.533-8.533
															S346.038,196.243,341.325,196.243z"></path>
													</g>
												</g>
											</svg>