<?xml version="1.0" encoding="UTF-8"?>
<!DOCTYPE svg PUBLIC "-//W3C//DTD SVG 1.1//EN" "http://www.w3.org/Graphics/SVG/1.1/DTD/svg11.dtd">
<!-- Creator: CorelDRAW X7 -->
<svg xmlns="http://www.w3.org/2000/svg" xml:space="preserve" width="4.02799in" height="0.911in" version="1.1" style="shape-rendering:geometricPrecision; text-rendering:geometricPrecision; image-rendering:optimizeQuality; fill-rule:evenodd; clip-rule:evenodd"
viewBox="0 0 4028 911"
 xmlns:xlink="http://www.w3.org/1999/xlink"
 xmlns:xodm="http://www.corel.com/coreldraw/odm/2003">
 <defs>
  <style type="text/css">
   <![CDATA[
    .fil0 {fill:#FEFEFE;fill-rule:nonzero}
    .fil1 {fill:#EBECEC;fill-rule:nonzero}
   ]]>
  </style>
 </defs>
 <g id="Layer_x0020_1">
  <metadata id="CorelCorpID_0Corel-Layer"/>
  <g id="_2237194604640">
   <path class="fil0" d="M3775 69c26,10 72,36 71,97 -1,77 -76,111 -114,112 0,0 0,0 0,0 28,16 77,49 132,27 72,-28 84,-95 85,-98 -27,-74 -93,-129 -174,-138z"/>
   <path class="fil0" d="M3939 479c-7,-12 -2,-23 -2,-42 0,-26 -14,-37 -29,-31 -15,6 -20,29 -12,57 7,24 20,37 26,59 5,23 -3,41 -23,46 -18,5 -36,-8 -41,-26 -6,-17 1,-42 1,-63 0,-21 -18,-38 -33,-36 -20,4 -29,22 -24,50 3,19 24,36 14,62 -9,26 -48,28 -58,0 -9,-23 2,-33 5,-52 5,-25 -15,-40 -30,-39 -15,2 -25,11 -27,32 -2,15 1,45 7,69 6,25 -8,47 -34,45 -26,-2 -33,-32 -26,-48 7,-17 16,-41 15,-63 -1,-23 -6,-55 -26,-63 -19,-7 -31,5 -32,22 -2,15 15,39 -3,63 -16,22 -40,14 -48,-7 -12,-29 7,-52 15,-76 6,-19 3,-40 -8,-56 -15,-24 -25,-60 -26,-78 -1,-32 25,-68 68,-74 46,-7 97,33 124,48 28,16 77,49 132,27 72,-28 84,-95 85,-98 8,22 13,46 13,71 0,16 -4,38 -5,46 -4,36 -8,74 13,103 21,30 19,51 8,62 -13,13 -32,4 -39,-10zm66 73c-2,-23 -20,-43 -35,-41 -14,1 -25,27 -22,46 3,20 15,34 30,33 18,-1 29,-18 27,-38zm-217 45c-13,0 -26,20 -26,40 0,15 7,38 29,38 22,0 28,-20 28,-37 0,-21 -16,-41 -31,-41z"/>
   <path class="fil1" d="M4028 277c0,56 -16,110 -47,156 -1,1 -3,3 -5,4 -2,-3 -4,-7 -6,-10 -4,-6 -7,-12 -10,-17 25,-40 39,-86 39,-133 0,-136 -112,-248 -248,-248 -137,0 -248,112 -248,248 0,54 16,105 48,148 5,6 4,16 -3,21 -2,2 -5,2 -9,2 -4,0 -8,-2 -11,-5 -36,-49 -55,-106 -55,-166 0,-153 125,-277 278,-277 153,0 277,124 277,277zm-182 -111c1,-61 -45,-87 -71,-97 -8,-1 -16,-1 -24,-1 -118,0 -212,94 -212,212 0,8 0,17 1,26 -2,-33 25,-70 68,-76 46,-7 97,33 124,48 0,0 0,0 0,0 38,-1 113,-35 114,-112z"/>
   <path class="fil0" d="M116 530c-37,0 -66,-6 -86,-19 -20,-13 -30,-33 -30,-58 0,-13 4,-24 13,-32 9,-9 20,-13 34,-13 9,0 15,2 19,6 5,4 7,7 7,11 0,0 -2,1 -6,3 -3,2 -7,6 -9,10 -3,4 -5,10 -5,18 0,17 5,30 16,39 10,9 26,14 47,14 15,0 28,-3 39,-9 11,-6 20,-13 26,-23 6,-9 9,-19 9,-30 0,-13 -4,-24 -11,-33 -8,-10 -17,-17 -27,-24 -11,-6 -26,-13 -45,-22 -21,-9 -39,-18 -52,-26 -13,-8 -25,-19 -34,-32 -9,-13 -14,-29 -14,-49 0,-31 11,-54 32,-70 21,-15 50,-23 84,-23 28,0 52,6 72,17 20,12 31,29 31,51 0,13 -5,24 -14,32 -8,9 -20,13 -34,13 -8,0 -15,-3 -19,-6 -4,-4 -6,-8 -6,-11 0,0 2,-1 7,-4 5,-2 9,-5 13,-9 4,-5 6,-11 6,-18 0,-13 -6,-24 -16,-32 -10,-7 -23,-11 -39,-11 -22,0 -39,5 -50,16 -11,10 -17,23 -17,38 0,12 3,23 10,31 7,9 18,17 33,25 13,7 26,13 40,20 23,10 42,20 55,28 14,9 25,20 34,34 9,14 14,32 14,53 0,18 -6,34 -17,49 -12,14 -27,26 -46,34 -19,8 -40,12 -64,12zm242 -4c-21,0 -39,-6 -52,-18 -13,-13 -20,-28 -20,-46 0,-23 8,-40 23,-51 15,-12 33,-19 54,-22 21,-4 48,-6 81,-8l0 -43c0,-17 -5,-31 -14,-40 -8,-9 -23,-14 -42,-14 -11,0 -21,4 -29,10 -8,7 -13,16 -13,28 0,6 2,10 5,14 2,4 5,7 8,10 3,2 5,4 5,4 0,2 -2,5 -7,8 -4,4 -10,5 -16,5 -11,0 -20,-3 -26,-11 -6,-8 -10,-18 -10,-28 0,-19 9,-33 26,-42 16,-9 37,-14 60,-14 30,0 54,6 72,17 19,11 28,32 28,62l0 126c1,8 3,15 7,22 5,7 12,10 21,10 3,0 5,1 7,2 1,1 1,3 1,7 0,4 -3,7 -10,9 -6,2 -13,3 -19,3 -14,0 -26,-4 -37,-12 -10,-8 -16,-18 -17,-32 -8,14 -19,25 -35,33 -16,7 -33,11 -51,11zm18 -29c12,0 23,-3 34,-9 10,-6 18,-15 24,-25 7,-11 10,-23 10,-36l0 -31c-38,3 -65,9 -80,19 -16,9 -23,24 -23,45 0,25 11,37 35,37zm300 29c-37,0 -66,-12 -87,-35 -20,-23 -31,-55 -31,-94 1,-24 7,-46 18,-66 12,-19 27,-34 46,-45 19,-11 40,-17 63,-18 23,0 43,5 60,13 16,9 25,23 25,44 0,11 -3,21 -10,29 -7,9 -16,13 -27,13 -7,0 -13,-2 -17,-6 -5,-3 -8,-6 -8,-9 0,0 2,-2 5,-5 3,-3 6,-6 9,-10 3,-4 4,-9 4,-15 0,-11 -4,-19 -12,-25 -8,-6 -18,-9 -30,-9 -27,0 -46,11 -56,31 -10,20 -15,46 -15,76 0,31 7,55 21,75 13,19 32,29 54,29 16,0 29,-3 40,-10 11,-7 21,-17 30,-30 1,-2 3,-3 5,-3 2,0 4,0 6,1 2,1 4,2 5,4 1,2 1,4 1,6 0,1 0,2 -1,4 -12,17 -27,30 -45,40 -17,10 -35,15 -53,15zm138 -5c-3,0 -5,-1 -7,-3 -1,-2 -2,-5 -2,-8 0,-4 1,-7 3,-8 2,-1 5,-1 9,-1 10,0 16,-2 20,-5 4,-3 7,-7 7,-12 1,-4 1,-11 1,-20l0 -264c0,-9 0,-16 0,-20 -1,-4 -3,-8 -7,-11 -4,-4 -11,-5 -20,-5 -4,0 -8,-1 -10,-2 -2,-1 -3,-4 -3,-9 0,-2 1,-4 2,-6 2,-2 4,-3 7,-4 18,-2 31,-5 40,-8 9,-3 15,-5 16,-5 7,-3 12,-4 14,-4 7,0 11,3 11,10l0 174 1 0c10,-10 19,-17 25,-22 7,-6 15,-10 25,-14 10,-4 23,-6 37,-6 24,0 43,8 58,23 14,14 21,34 21,58l0 115c0,9 1,16 1,20 1,5 3,9 7,12 4,3 11,5 20,5l3 0c4,0 6,0 7,1 1,1 2,4 2,8 0,3 0,6 -2,8 -1,2 -3,3 -6,3 -21,-1 -40,-1 -56,-1 -17,0 -36,0 -57,1 -2,0 -5,-1 -6,-3 -1,-2 -2,-5 -2,-8 0,-4 1,-7 3,-8 1,-1 5,-1 9,-1 10,0 16,-2 20,-5 4,-3 6,-7 7,-11 1,-4 1,-11 1,-21l0 -115c0,-16 -5,-29 -16,-38 -10,-8 -22,-13 -35,-13 -17,0 -31,4 -43,13 -12,8 -20,16 -24,24l0 129c0,9 0,16 0,20 1,5 3,9 7,12 4,3 11,5 20,5l3 0c4,0 6,0 7,1 1,1 2,4 3,8 0,3 -1,6 -3,8 -1,2 -3,3 -6,3 -20,-1 -39,-1 -56,-1 -16,0 -35,0 -56,1zm323 0c-2,0 -5,-1 -6,-3 -2,-2 -3,-5 -3,-8 1,-4 2,-7 4,-8 1,-1 5,-1 9,-1 10,0 16,-2 20,-5 4,-3 7,-7 7,-12 1,-4 1,-11 1,-20l0 -124c0,-9 0,-16 -1,-20 0,-5 -3,-8 -7,-12 -4,-3 -10,-4 -20,-4 -4,0 -7,-1 -9,-2 -3,-2 -4,-5 -4,-9 0,-2 1,-4 3,-6 1,-2 3,-4 6,-4 23,-3 42,-8 58,-14 5,-2 10,-3 13,-3l1 0c6,0 9,3 9,10l0 188c0,9 0,16 1,20 1,5 3,9 7,12 4,3 11,5 20,5l3 0c3,0 5,0 7,1 1,1 2,4 3,8 0,3 -1,6 -3,8 -1,2 -3,3 -6,3 -21,-1 -40,-1 -57,-1 -16,0 -35,0 -56,1zm53 -315c-10,0 -18,-3 -25,-10 -7,-6 -10,-14 -10,-23 0,-8 4,-16 12,-22 9,-7 18,-10 28,-10 9,0 17,3 22,10 6,6 9,14 9,23 0,9 -3,17 -10,23 -7,6 -15,9 -26,9zm104 315c-2,0 -4,-1 -6,-3 -2,-2 -2,-5 -2,-8 0,-4 1,-7 3,-8 2,-1 5,-1 9,-1 10,0 17,-2 20,-5 4,-3 7,-7 7,-12 1,-4 1,-11 1,-20l0 -124c0,-9 0,-16 -1,-20 0,-5 -3,-8 -7,-12 -3,-3 -10,-4 -20,-4 -4,0 -7,-1 -9,-2 -2,-2 -3,-5 -3,-9 0,-2 0,-4 2,-6 1,-2 3,-4 6,-4 24,-4 43,-8 58,-14 6,-2 10,-3 12,-3l2 0c6,0 9,3 9,10l0 34 1 0c11,-10 19,-17 26,-22 6,-6 14,-10 25,-14 10,-4 22,-6 36,-6 25,0 44,8 58,23 15,14 22,34 22,58l0 115c0,9 0,16 1,20 1,5 3,9 7,12 4,3 11,5 20,5l3 0c3,0 5,0 7,1 1,1 2,4 3,8 0,3 -1,6 -3,8 -1,2 -4,3 -6,3 -21,-1 -40,-1 -57,-1 -16,0 -35,0 -56,1 -2,0 -4,-1 -6,-3 -2,-2 -3,-5 -3,-8 1,-4 2,-7 3,-8 2,-1 5,-1 10,-1 9,0 16,-2 20,-5 4,-3 6,-7 7,-12 1,-4 1,-11 1,-20l0 -115c0,-16 -5,-29 -16,-38 -10,-8 -22,-13 -36,-13 -16,0 -31,4 -43,12 -11,8 -20,17 -24,25l0 129c0,9 1,16 1,20 1,5 3,9 7,12 4,3 11,5 20,5l3 0c3,0 5,0 7,1 1,1 2,4 3,8 0,3 -1,6 -3,8 -1,2 -3,3 -6,3 -21,-1 -40,-1 -57,-1 -16,0 -35,0 -56,1zm439 102l-3 0c-5,0 -8,-3 -10,-9 0,-1 0,-3 0,-5 0,-4 2,-7 6,-8 18,-8 31,-19 40,-33 8,-14 14,-31 16,-52 3,-21 4,-49 4,-84l0 -190c0,-9 -1,-16 -2,-22 -2,-5 -5,-10 -10,-14 -5,-4 -13,-6 -23,-6l-3 0c-4,0 -6,0 -8,-1 -2,-2 -3,-5 -3,-10 0,-3 1,-6 3,-8 1,-3 4,-4 7,-4 23,1 44,2 64,2 22,0 44,-1 67,-2 4,0 6,1 8,4 1,2 2,5 2,8 0,5 -1,9 -3,10 -2,1 -6,1 -11,1 -10,0 -18,2 -23,6 -5,4 -8,9 -10,14 -1,6 -2,13 -2,22l0 208c0,47 -8,85 -25,115 -16,29 -43,49 -81,58zm246 -97c-21,0 -39,-6 -52,-18 -13,-13 -20,-28 -20,-46 0,-23 8,-40 23,-51 15,-12 33,-19 54,-22 21,-4 48,-6 81,-8l0 -43c0,-17 -5,-31 -14,-40 -8,-9 -22,-14 -42,-14 -11,0 -21,4 -29,10 -8,7 -12,16 -12,28 0,6 1,10 4,14 2,4 5,7 8,10 3,2 5,4 5,4 0,2 -2,5 -7,8 -4,4 -10,5 -16,5 -11,0 -20,-3 -26,-11 -6,-8 -10,-18 -10,-28 0,-19 9,-33 26,-42 16,-9 37,-14 60,-14 30,0 54,6 72,17 19,11 28,32 28,62l0 126c1,8 3,15 7,22 5,7 12,10 21,10 3,0 5,1 6,2 2,1 2,3 2,7 0,4 -3,7 -10,9 -6,2 -13,3 -19,3 -14,0 -26,-4 -36,-12 -11,-8 -17,-18 -18,-32 -8,14 -19,25 -35,33 -16,7 -33,11 -51,11zm18 -29c12,0 23,-3 34,-9 10,-6 18,-15 25,-25 6,-11 9,-23 9,-36l0 -31c-38,3 -65,9 -80,19 -16,9 -23,24 -23,45 0,25 11,37 35,37zm296 29c-21,0 -39,-5 -57,-16 -17,-11 -31,-27 -41,-46 -11,-20 -16,-42 -16,-67 0,-22 6,-43 16,-63 11,-20 26,-36 45,-48 19,-12 41,-18 64,-18 11,0 22,2 33,5 12,2 21,6 30,11l1 0 0 -83c0,-9 0,-16 -1,-21 0,-4 -2,-8 -6,-11 -4,-3 -11,-5 -20,-5 -5,0 -8,0 -10,-2 -2,-1 -3,-4 -3,-9 0,-2 0,-4 2,-6 1,-2 3,-3 6,-3 23,-3 42,-8 59,-14 5,-2 9,-3 12,-4l2 0c5,0 8,4 8,11l0 333c0,21 14,32 42,32 7,0 10,3 10,8 0,5 -3,8 -10,10l-85 5c-3,0 -4,0 -5,-2 0,-2 0,-4 0,-8l0 -22 -2 0c-9,10 -21,18 -34,24 -14,6 -27,9 -40,9zm18 -27c13,0 23,-2 32,-7 9,-5 17,-12 25,-20l0 -143c-3,-10 -10,-19 -20,-28 -10,-9 -23,-13 -39,-13 -14,0 -26,4 -38,13 -11,9 -20,22 -26,39 -7,17 -10,37 -10,60 0,27 6,51 19,70 14,19 32,29 57,29zm180 22c-3,0 -5,-1 -6,-3 -2,-2 -2,-5 -2,-8 0,-4 1,-7 3,-8 1,-1 4,-1 9,-1 9,0 16,-2 20,-5 4,-3 6,-7 7,-12 1,-4 1,-11 1,-20l0 -264c0,-9 0,-16 -1,-20 0,-4 -2,-8 -6,-11 -4,-4 -11,-5 -20,-5 -5,0 -8,-1 -10,-2 -2,-1 -3,-4 -3,-9 0,-2 0,-4 2,-6 1,-2 3,-3 6,-4 18,-2 32,-5 41,-8 9,-3 15,-5 16,-5 7,-3 11,-4 14,-4 7,0 10,3 10,10l0 174 1 0c11,-10 19,-17 26,-22 6,-6 15,-10 25,-14 10,-4 22,-6 36,-6 25,0 44,8 59,23 14,14 21,34 21,58l0 115c0,9 0,16 1,20 1,5 3,9 7,12 4,3 10,5 20,5l3 0c3,0 6,0 7,1 1,1 2,4 2,8 0,3 -1,6 -2,8 -1,2 -3,3 -6,3 -21,-1 -40,-1 -57,-1 -17,0 -35,0 -56,1 -3,0 -5,-1 -6,-3 -2,-2 -2,-5 -2,-8 0,-4 1,-7 3,-8 1,-1 4,-1 9,-1 9,0 16,-2 20,-5 4,-3 6,-7 7,-11 0,-4 1,-11 1,-21l0 -115c0,-16 -6,-29 -16,-38 -10,-8 -22,-13 -36,-13 -16,0 -31,4 -43,13 -12,8 -20,16 -24,24l0 129c0,9 1,16 1,20 1,5 3,9 7,12 4,3 10,5 20,5l3 0c3,0 6,0 7,1 1,1 2,4 2,8 0,3 0,6 -2,8 -1,2 -3,3 -6,3 -21,-1 -40,-1 -57,-1 -16,0 -34,0 -56,1zm388 5c-22,0 -39,-6 -52,-18 -14,-13 -20,-28 -20,-46 0,-23 7,-40 22,-51 15,-12 33,-19 54,-22 21,-4 48,-6 81,-8l0 -43c0,-17 -4,-31 -13,-40 -9,-9 -23,-14 -42,-14 -11,0 -21,4 -29,10 -9,7 -13,16 -13,28 0,6 1,10 4,14 3,4 6,7 9,10 3,2 4,4 4,4 0,2 -2,5 -6,8 -5,4 -10,5 -17,5 -11,0 -19,-3 -25,-11 -7,-8 -10,-18 -10,-28 0,-19 8,-33 25,-42 17,-9 37,-14 61,-14 29,0 53,6 72,17 19,11 28,32 28,62l0 126c0,8 3,15 7,22 4,7 11,10 21,10 3,0 5,1 6,2 1,1 2,3 2,7 0,4 -3,7 -10,9 -7,2 -13,3 -20,3 -13,0 -25,-4 -36,-12 -10,-8 -16,-18 -18,-32 -7,14 -19,25 -35,33 -15,7 -32,11 -50,11zm17 -29c13,0 24,-3 34,-9 11,-6 19,-15 25,-25 6,-11 9,-23 9,-36l0 -31c-37,3 -64,9 -80,19 -15,9 -23,24 -23,45 0,25 12,37 35,37zm289 28c-10,-20 -23,-52 -40,-97 -1,-3 -6,-16 -15,-39 -8,-22 -16,-41 -24,-56 -6,-14 -12,-23 -17,-29 -5,-5 -13,-8 -24,-10 -1,0 -3,0 -6,-1 -3,0 -4,-1 -5,-2 -1,-2 -1,-4 -1,-8 0,-4 1,-7 3,-8 3,-1 6,-2 9,-2 3,0 6,0 7,0 22,-1 39,2 52,9 12,8 23,20 31,39 0,1 7,18 21,52 17,42 28,70 36,86l1 0 54 -142c1,-6 2,-10 2,-13 0,-4 -1,-7 -5,-8 -4,-1 -10,-2 -18,-2l-3 0c-3,0 -5,-1 -6,-2 -1,-1 -2,-4 -3,-8 0,-2 1,-5 2,-7 1,-2 3,-4 6,-4 20,1 38,2 52,2 6,0 17,0 34,-1l11 -1c3,0 5,2 6,4 1,2 2,5 2,7 0,4 -1,7 -3,8 -1,1 -3,2 -6,2 -13,0 -24,2 -31,6 -7,5 -13,13 -18,26 -8,21 -24,59 -47,115 -22,56 -34,84 -35,84l-22 0z"/>
   <path class="fil1" d="M1600 859c-21,0 -37,-4 -49,-12 -11,-8 -16,-22 -16,-40l0 -105c0,-3 -2,-5 -4,-7 -2,-1 -6,-2 -9,-2l-6 0 0 -7 61 0 0 7 -5 0c-4,0 -7,1 -10,2 -2,2 -4,4 -4,7l0 107c0,15 5,25 13,31 8,6 20,9 35,9 13,0 24,-3 32,-9 9,-6 14,-17 14,-31l0 -107c0,-3 -2,-5 -4,-7 -2,-1 -6,-2 -10,-2l-5 0 0 -7 49 0 0 7 -5 0c-4,0 -7,1 -10,2 -2,2 -3,4 -3,7l0 105c0,18 -6,31 -17,39 -10,9 -26,13 -47,13zm96 -3l0 -6 7 0c9,0 14,-3 14,-9l0 -139c0,-6 -5,-9 -14,-9l-7 0 0 -7 66 0 0 7 -7 0c-9,0 -14,3 -14,9l0 139c0,6 5,9 14,9l7 0 0 6 -66 0zm79 0l63 -171 13 0 -64 171 -12 0zm174 3c-22,0 -38,-4 -49,-12 -11,-8 -17,-22 -17,-40l0 -105c0,-3 -1,-5 -4,-7 -2,-1 -5,-2 -9,-2l-6 0 0 -7 62 0 0 7 -6 0c-4,0 -7,1 -9,2 -3,2 -4,4 -4,7l0 107c0,15 4,25 12,31 9,6 20,9 35,9 13,0 24,-3 33,-9 9,-6 13,-17 13,-31l0 -107c0,-3 -1,-5 -4,-7 -2,-1 -5,-2 -9,-2l-5 0 0 -7 49 0 0 7 -6 0c-4,0 -7,1 -9,2 -3,2 -4,4 -4,7l0 105c0,18 -5,31 -16,39 -11,9 -27,13 -47,13zm252 -9l6 0 0 6 -61 0 0 -6 7 0c3,0 5,-1 7,-2 2,-1 3,-3 3,-4 0,-1 0,-2 -1,-3l-41 -59 -44 58c-1,1 -2,2 -2,4 0,1 1,3 3,4 2,1 5,2 7,2l8 0 0 6 -53 0 0 -6 8 0c3,0 5,-1 6,-2 2,-1 3,-2 4,-4 1,-2 2,-3 3,-3l52 -70 -49 -69c-4,-6 -8,-9 -13,-9l-6 0 0 -7 61 0 0 7 -7 0c-3,0 -5,1 -7,2 -2,1 -3,2 -3,4 0,1 0,2 1,3l36 51 38 -51c1,-1 1,-2 1,-3 0,-1 -1,-3 -3,-4 -2,-1 -4,-2 -6,-2l-8 0 0 -7 52 0 0 7 -8 0c-2,0 -4,1 -6,2 -1,1 -2,2 -4,4 -1,1 -2,2 -2,3l-46 62 54 77c4,6 8,9 13,9zm144 9c-9,0 -17,-1 -24,-4 -7,-3 -14,-6 -21,-10 -4,-2 -6,-3 -7,-3 -1,0 -1,0 -2,1 0,1 0,2 0,3l0 10 -9 0 0 -46 7 0c1,8 4,15 9,21 5,5 11,10 18,13 7,3 15,5 23,5 12,0 22,-3 30,-9 7,-6 11,-14 11,-25 0,-6 -2,-12 -6,-17 -4,-5 -9,-9 -14,-12 -6,-3 -14,-7 -24,-11 -11,-5 -20,-9 -27,-13 -7,-4 -12,-9 -17,-15 -5,-6 -7,-14 -7,-22 0,-14 5,-24 15,-31 11,-7 24,-10 41,-10 8,0 15,1 21,3 6,2 12,5 19,8 3,2 5,3 6,3 1,0 1,-1 1,-2l0 -11 9 0 0 46 -7 0c-1,-11 -6,-20 -14,-27 -8,-7 -18,-10 -30,-10 -11,0 -21,3 -27,8 -7,5 -10,11 -10,20 0,5 2,10 6,15 3,4 8,7 13,10 5,3 13,6 22,10 12,5 21,9 28,13 7,4 14,10 19,17 5,6 7,15 7,25 0,15 -5,26 -16,35 -11,8 -26,12 -43,12zm74 52l0 -6 5 0c4,0 7,-1 10,-2 2,-1 3,-3 3,-6l0 -136c0,-2 0,-3 -1,-4 -2,-1 -3,-1 -4,-1 -1,0 -4,1 -7,2l-2 -6 31 -10 6 0 0 18c4,-7 10,-12 17,-15 8,-4 15,-5 23,-5 16,0 28,5 37,14 10,10 14,24 14,43 0,21 -5,37 -14,47 -10,10 -24,15 -42,15 -8,0 -15,-2 -22,-5 -6,-3 -11,-7 -13,-12l0 55c0,3 1,5 3,6 3,1 6,2 10,2l4 0 0 6 -58 0zm74 -61c12,0 22,-5 27,-14 6,-10 9,-22 9,-38 0,-16 -3,-28 -9,-36 -6,-8 -15,-12 -28,-12 -4,0 -9,1 -14,4 -5,3 -10,7 -13,12 -3,5 -5,11 -5,17l0 34c0,9 3,17 9,23 6,7 14,10 24,10zm182 -56l-87 0c0,1 0,3 0,6 0,15 3,27 11,36 7,10 16,14 28,14 11,0 20,-3 27,-8 7,-6 11,-14 13,-26l7 0c-1,13 -6,23 -14,31 -9,8 -21,12 -36,12 -19,0 -33,-5 -44,-15 -10,-11 -15,-25 -15,-45 0,-18 5,-33 15,-43 11,-11 25,-16 44,-16 16,0 29,4 38,13 9,9 13,21 13,35l0 6zm-51 -45c-9,0 -17,3 -23,10 -6,6 -10,15 -12,25l66 0c0,-9 -3,-17 -8,-24 -5,-7 -12,-11 -23,-11zm124 110c-18,0 -33,-5 -43,-15 -10,-11 -15,-25 -15,-45 0,-18 5,-33 15,-43 11,-11 25,-16 44,-16 8,0 15,1 22,3 7,3 13,6 18,12l2 -15 6 0 0 40 -6 0c-1,-10 -5,-18 -12,-23 -6,-5 -14,-8 -24,-8 -13,0 -24,5 -31,14 -8,9 -11,22 -11,37 0,15 3,27 10,36 7,10 17,14 28,14 11,0 20,-3 27,-8 6,-6 11,-14 13,-26l7 0c-1,13 -6,23 -14,31 -9,8 -20,12 -36,12zm92 -139c-4,0 -8,-1 -10,-4 -3,-2 -4,-5 -4,-9 0,-4 1,-7 4,-10 2,-2 6,-4 10,-4 4,0 7,2 10,4 2,3 4,6 4,10 0,4 -2,7 -4,9 -3,3 -6,4 -10,4zm-27 136l0 -6 5 0c4,0 7,0 9,-2 2,-1 4,-3 4,-5l0 -82c0,-4 -2,-6 -6,-6 0,0 -2,1 -3,1 -2,1 -3,1 -4,1l-1 -5 30 -11 6 0 0 102c0,2 2,4 4,5 2,2 5,2 9,2l5 0 0 6 -58 0zm103 3c-10,0 -17,-2 -23,-7 -5,-5 -8,-11 -8,-19 0,-12 6,-21 18,-29 13,-8 32,-13 58,-17l0 -12c0,-9 -3,-15 -8,-19 -5,-4 -12,-6 -21,-6 -6,0 -12,1 -17,3 -5,3 -8,5 -8,8 0,1 0,2 1,4 0,1 0,2 0,3 0,2 0,5 -2,6 -1,2 -4,3 -7,3 -3,0 -5,-1 -7,-3 -2,-2 -3,-5 -3,-9 0,-8 5,-14 14,-18 9,-5 21,-7 34,-7 15,0 26,3 34,10 9,6 13,15 13,27l0 65c0,6 1,8 5,8 2,0 5,0 9,-2l0 4c-3,2 -6,4 -9,5 -4,1 -8,2 -12,2 -4,0 -8,-1 -11,-3 -4,-2 -5,-4 -5,-9l0 -7c-7,7 -14,12 -22,15 -8,3 -15,4 -23,4zm12 -10c5,0 12,-2 18,-6 7,-4 12,-8 15,-13l0 -35c-18,4 -31,9 -40,15 -9,6 -14,14 -14,21 0,6 2,11 6,14 3,3 8,4 15,4zm81 7l0 -6 4 0c4,0 7,0 10,-2 2,-1 3,-3 3,-5l0 -141c0,-3 -2,-5 -5,-5 -1,0 -4,1 -7,2l-2 -6 31 -11 6 0 0 161c0,2 1,4 3,5 3,2 6,2 10,2l4 0 0 6 -57 0zm99 -136c-5,0 -8,-1 -11,-4 -2,-2 -3,-5 -3,-9 0,-4 1,-7 3,-10 3,-2 6,-4 11,-4 4,0 7,2 9,4 3,3 4,6 4,10 0,4 -1,7 -4,9 -2,3 -5,4 -9,4zm-27 136l0 -6 4 0c4,0 7,0 10,-2 2,-1 3,-3 3,-5l0 -82c0,-4 -2,-6 -5,-6 -1,0 -2,1 -4,1 -1,1 -2,1 -3,1l-2 -5 31 -11 6 0 0 102c0,2 1,4 3,5 3,2 6,2 10,2l4 0 0 6 -57 0zm122 3c-19,0 -32,-5 -39,-15l-3 14 -6 0 0 -36 6 0c2,9 6,15 12,20 6,5 14,8 23,8 9,0 17,-2 22,-5 5,-4 7,-9 7,-15 0,-5 -2,-9 -6,-12 -5,-3 -12,-6 -21,-9 -9,-3 -16,-6 -22,-9 -5,-3 -10,-7 -14,-12 -3,-5 -5,-11 -5,-19 0,-9 3,-16 11,-22 7,-5 17,-7 30,-7 8,0 15,1 22,4 7,2 12,6 16,10l2 -14 6 0 0 35 -6 0c-2,-8 -6,-14 -11,-18 -6,-5 -13,-7 -22,-7 -8,0 -14,1 -19,4 -5,3 -7,7 -7,13 0,6 2,10 7,13 5,4 13,7 23,10 8,3 15,6 21,9 5,2 9,6 13,11 3,4 5,10 5,17 0,11 -4,19 -13,24 -8,5 -19,8 -32,8zm137 -25l8 0c-1,9 -4,15 -10,19 -6,4 -13,6 -22,6 -12,0 -21,-3 -28,-8 -6,-5 -9,-13 -9,-25l0 -74 -19 0 0 -10 19 0 0 -21 17 -11 6 0 0 32 34 0 0 10 -34 0 0 74c0,8 1,14 4,18 3,4 8,6 14,6 5,0 10,-1 13,-4 4,-2 6,-6 7,-12z"/>
  </g>
 </g>
 <g id="Layer_x0020_1_0">
  <metadata id="CorelCorpID_1Corel-Layer"/>
 </g>
</svg>
