<?xml version="1.0" encoding="UTF-8"?>
<!DOCTYPE svg PUBLIC "-//W3C//DTD SVG 1.1//EN" "http://www.w3.org/Graphics/SVG/1.1/DTD/svg11.dtd">
<!-- Creator: CorelDRAW 2021 (64-Bit) -->
<svg xmlns="http://www.w3.org/2000/svg" xml:space="preserve" width="102.321mm" height="23.148mm" version="1.1" style="shape-rendering:geometricPrecision; text-rendering:geometricPrecision; image-rendering:optimizeQuality; fill-rule:evenodd; clip-rule:evenodd"
viewBox="0 0 10232.1 2314.8"
 xmlns:xlink="http://www.w3.org/1999/xlink"
 xmlns:xodm="http://www.corel.com/coreldraw/odm/2003">
 <defs>
  <style type="text/css">
   <![CDATA[
    .fil1 {fill:#06B6D4;fill-rule:nonzero}
    .fil0 {fill:#6F42C1;fill-rule:nonzero}
   ]]>
  </style>
 </defs>
 <g id="Layer_x0020_1">
  <metadata id="CorelCorpID_0Corel-Layer"/>
  <g id="_1821453032896">
   <path class="fil0" d="M9582.94 178.05c65.8,25.28 182.36,91.89 179.82,245.74 -3.24,196.87 -193.05,282.03 -289.75,284.79 0.45,0.26 0.93,0.54 1.38,0.8 69.01,39.11 195.25,123.76 335.19,69.33 182.41,-70.96 212.65,-241.17 216.27,-250.38 -68.58,-187.58 -238.02,-326.58 -442.91,-350.28z"/>
   <path class="fil0" d="M9998.14 1218.65c-17.41,-30.69 -2.77,-57.16 -3.7,-105.98 -1.23,-65.31 -36.97,-93.66 -73.78,-78.62 -39.06,15.96 -50.69,74.92 -30.97,143.93 17.66,61.8 50.53,94.89 65.31,151.58 14.79,56.68 -7.39,103.51 -56.68,115.84 -47.1,11.77 -91.2,-20.96 -105.98,-65.31 -14.79,-44.37 4.92,-105.99 4.92,-160.21 0,-54.22 -46.19,-98.03 -86.26,-91.19 -50.53,8.63 -72.71,54.22 -60.39,126.93 8.23,48.53 61.62,91.19 36.98,157.74 -24.65,66.54 -123.46,70.24 -149,-1.23 -20.97,-58.7 6.86,-84.39 14.67,-130.63 10.87,-64.39 -40.36,-102.41 -78.03,-99.21 -37.97,3.23 -63.08,28.35 -68.62,79.49 -4.28,39.51 3.7,115.84 18.49,177.45 14.78,61.62 -19.72,118.31 -86.27,113.38 -66.54,-4.93 -83.8,-81.33 -66.54,-123.23 17.25,-41.91 41.9,-103.52 39.43,-160.21 -2.47,-56.68 -17.25,-138.02 -66.55,-157.74 -49.29,-19.72 -78.57,11.23 -82.57,54.23 -3.69,39.82 38.21,99.82 -6.15,160.2 -40.89,55.65 -101.69,36.61 -123.23,-17.25 -29.58,-73.94 19.39,-132.13 39.43,-192.25 16.02,-48.06 6.37,-101.62 -20.03,-143.9 -37.89,-60.66 -64.26,-150.5 -66.22,-196.18 -2.52,-81.86 63.56,-173.59 172.51,-189.82 115.84,-17.25 246.47,83.8 315.48,122.92 69.01,39.11 195.25,123.76 335.19,69.33 182.91,-71.15 212.79,-242.03 216.26,-250.39 20.34,56.69 32.04,117.37 32.04,181.06 0,40.46 -10.41,96.92 -12.95,117.78 -11.07,90.8 -20.23,185.93 32.07,259.63 54.22,76.41 50.52,130.63 22.18,157.74 -34.39,32.9 -80.99,9.46 -101.04,-25.88zm169.86 187.34c-5.54,-60.26 -51.03,-110.34 -89.8,-105.68 -35.14,4.23 -62.65,69.42 -56.04,118.3 6.87,50.83 36.99,84.83 77.11,83.2 44.38,-1.8 73.39,-44.95 68.73,-95.82zm-551.85 113.27c-32.84,0 -66.3,50.51 -66.3,102.22 0,38.33 16.73,95.5 72.76,95.5 56.04,0 72.76,-49.71 72.76,-93.68 0.01,-52.32 -42.5,-104.04 -79.22,-104.04z"/>
   <path class="fil1" d="M10225.81 707.44c0,141.24 -41.64,277.55 -120.4,394.15 -3.17,4.69 -7.27,8.34 -11.83,11.07 -4.81,-8.33 -10.22,-16.92 -16.58,-25.87 -9.84,-13.87 -17.49,-28.5 -23.38,-43.7 63.44,-100.47 97.25,-215.96 97.25,-335.65 0,-347.36 -282.61,-629.97 -629.97,-629.97 -347.36,0 -629.95,282.61 -629.95,629.97 0,136.22 42.76,265.86 123.64,374.9 12.33,16.62 8.86,40.09 -7.77,52.42 -6.72,4.98 -14.53,7.37 -22.29,7.37 -11.47,0 -22.78,-5.23 -30.13,-15.15 -90.53,-122.05 -138.39,-267.12 -138.39,-419.54 0,-388.69 316.22,-704.91 704.89,-704.91 388.7,0 704.91,316.23 704.91,704.91zm-463.05 -283.65c2.54,-153.77 -113.9,-220.39 -179.71,-245.7 -20.51,-2.38 -41.36,-3.63 -62.52,-3.63 -297.4,0 -538.49,241.09 -538.49,538.48 0,22.48 1.82,44.49 4.49,66.23 -4.64,-83.17 61.54,-176.2 172.39,-192.71 115.83,-17.25 246.46,83.8 315.47,122.92 -0.45,-0.26 -0.93,-0.54 -1.38,-0.8 96.7,-2.75 286.51,-87.91 289.75,-284.79z"/>
   <path class="fil0" d="M290.11 1350.09c-96.01,0 -169.44,-16.72 -220.3,-50.15 -50.72,-33.29 -76.08,-82.44 -76.08,-147.44 0,-32.86 11.21,-60.01 33.64,-81.44 22.43,-21.57 51.44,-32.36 87.01,-32.36 21.15,1 37.15,6.29 48.01,15.86 11,9.57 16.5,18.5 16.5,26.79 0,0.85 -4.57,4 -13.72,9.43 -9.14,5.57 -17.36,13.85 -24.64,24.86 -7.29,10.85 -10.93,25.93 -10.93,45.21 0,43.01 13,76.15 39,99.44 26.15,23.29 66.65,34.93 121.51,34.93 37.43,0 70.29,-7.28 98.58,-21.86 28.43,-14.71 50.15,-34.14 65.15,-58.29 15.15,-24.28 22.72,-49.72 22.72,-76.29 0,-32.86 -9.36,-61.15 -28.08,-84.86 -18.71,-23.86 -41.79,-43.79 -69.22,-59.8 -27.43,-16 -64.93,-34.5 -112.51,-55.5 -54.86,-24.72 -99.22,-47.15 -133.08,-67.29 -33.86,-20 -62.65,-46.72 -86.37,-80.15 -23.86,-33.43 -35.79,-74.79 -35.79,-124.09 0,-79.57 27.22,-139.01 81.66,-178.3 54.43,-39.29 126.01,-58.93 214.73,-58.93 69.43,0 130.01,14.57 181.73,43.72 51.58,29.29 77.36,72.29 77.36,129.01 0,32.86 -11.14,60.08 -33.43,81.65 -22.43,21.43 -51.5,32.15 -87.22,32.15 -21,-0.86 -37,-6.08 -48,-15.65 -11.01,-9.71 -16.51,-18.64 -16.51,-26.79 0,-1 6.22,-4.21 18.65,-9.64 12.29,-5.43 23.22,-13.65 32.79,-24.65 9.71,-11 14.57,-26.07 14.57,-45.21 0,-33.86 -13.07,-60.44 -39.22,-79.73 -26,-19.14 -59.15,-28.71 -99.44,-28.71 -55.71,0 -98,13 -126.86,39 -28.72,26.15 -43.08,58.43 -43.08,96.87 0,32 8.64,58.72 25.93,80.15 17.43,21.43 45.36,42.71 83.8,63.86 31,16.43 64.79,32.86 101.36,49.29 58.58,26.57 105.01,50.79 139.3,72.65 34.29,22 63.08,50.79 86.37,86.36 23.28,35.72 34.93,80.08 34.93,133.09 0,45.72 -14.36,87.08 -43.08,124.08 -28.86,37.15 -67.72,66.22 -116.58,87.22 -49.01,21 -102.72,31.51 -161.16,31.51zm614.41 -10.93c-54.86,0 -99.22,-15.58 -133.08,-46.72 -33.86,-31.01 -50.79,-69.87 -50.79,-116.58 0,-57.58 19.22,-100.8 57.65,-129.66 38.43,-28.72 84.15,-47.43 137.15,-56.15 53.01,-8.71 121.59,-15.36 205.74,-19.93l0 -108.22c0,-44.86 -11.22,-78.94 -33.65,-102.23 -22.43,-23.28 -58.29,-34.93 -107.58,-34.93 -28.43,0 -53.15,8.65 -74.15,25.93 -21,17.43 -31.5,40.79 -31.5,70.08 0,14.57 3.43,26.65 10.28,36.22 6.86,9.57 14.15,17.57 21.86,24 7.86,6.43 11.79,10.07 11.79,10.93 0,5.57 -5.71,12.72 -17.14,21.43 -11.43,8.57 -25.36,12.86 -41.79,12.86 -27.43,0 -49.15,-10 -65.15,-30 -16,-20.15 -24,-43.94 -24,-71.37 0,-47.57 21.21,-82.79 63.64,-105.65 42.58,-22.86 94.01,-34.29 154.3,-34.29 75.01,0 136.09,14.15 183.23,42.43 47.01,28.44 70.51,81.01 70.51,157.73l0 319.75c1,19.14 6.93,37.43 17.79,54.86 11,17.29 28.86,25.93 53.58,25.93 7.28,0 12.57,1.36 15.85,4.07 3.15,2.86 4.72,8.86 4.72,18 0,10.86 -8.43,18.86 -25.29,24.01 -17,5 -33.72,7.5 -50.15,7.5 -34.71,0 -65.36,-10.08 -91.93,-30.22 -26.43,-20.15 -41.51,-47.15 -45.22,-81.01 -19.15,35.72 -48.65,63.15 -88.51,82.3 -39.72,19.28 -82.44,28.93 -128.16,28.93zm43.94 -74.15c31,0 59.79,-7.79 86.36,-23.36 26.43,-15.43 47.44,-36.65 63.01,-63.65 15.57,-27 23.36,-56.93 23.36,-89.8l0 -78.22c-96.01,7.29 -163.66,22.79 -202.95,46.51 -39.29,23.86 -58.93,62.29 -58.93,115.29 0,62.15 29.71,93.23 89.15,93.23zm762.5 74.15c-93.3,0 -166.45,-29.72 -219.45,-89.15 -53.01,-59.44 -79.51,-139.02 -79.51,-238.74 1.86,-62.15 17.14,-117.65 45.86,-166.52 28.86,-49 67.51,-87.43 115.94,-115.29 48.43,-27.86 101.94,-42.72 160.52,-44.58 58.43,0 108.93,11 151.51,33.01 42.57,21.85 63.86,58.43 63.86,109.72 0,28.29 -8.5,53.15 -25.5,74.58 -16.86,21.57 -39.5,32.36 -67.94,32.36 -17.28,0 -32.14,-4.57 -44.57,-13.72 -12.29,-9.14 -18.43,-16.93 -18.43,-23.36 0,-0.85 4.14,-5 12.43,-12.43 8.14,-7.28 15.64,-16.14 22.5,-26.57 6.86,-10.57 10.29,-22.72 10.29,-36.43 0,-28.29 -10.29,-49.79 -30.86,-64.51 -20.58,-14.57 -45.51,-21.86 -74.79,-21.86 -70.3,0 -118.02,25.79 -143.16,77.37 -25.15,51.72 -37.72,116.44 -37.72,194.16 0,76.86 17.36,139.94 52.08,189.23 34.72,49.43 80.86,74.15 138.44,74.15 39.29,0 72.93,-8.5 100.94,-25.5 27.86,-16.86 53.22,-42.65 76.07,-77.37 2.72,-4.57 7.29,-6.86 13.72,-6.86 4.57,0 9.57,1.36 15,4.08 4.57,1.85 8.22,5.07 10.93,9.64 2.86,4.57 4.29,9.14 4.29,13.72 0,2.71 -1.43,6.35 -4.29,10.92 -30.14,43.01 -67.58,77.08 -112.29,102.23 -44.87,25.14 -90.16,37.72 -135.87,37.72zm349.74 -12.43c-7.28,0 -12.78,-2.72 -16.5,-8.15 -3.57,-5.57 -5.36,-12 -5.36,-19.28 0.86,-11.86 3.36,-18.93 7.5,-21.22 4.15,-2.29 12.15,-3.43 24.01,-3.43 23.71,0 40.64,-4.14 50.79,-12.43 10,-8.14 15.93,-17.72 17.78,-28.72 1.86,-11 2.79,-28.36 2.79,-52.07l0 -669.28c0,-23.86 -0.71,-41.29 -2.14,-52.29 -1.43,-10.86 -7.15,-20.43 -17.15,-28.72 -10,-8.28 -26.93,-12.42 -50.79,-12.42 -11,0 -19.21,-1.58 -24.64,-4.72 -5.43,-3.14 -8.15,-10.71 -8.15,-22.72 0,-5.43 1.79,-10.64 5.36,-15.64 3.72,-5 9.22,-8 16.5,-9 45.72,-6.43 80.22,-13.5 103.51,-21.22 23.29,-7.71 36.79,-12.07 40.51,-13.07 17.43,-6.43 29.28,-9.64 35.57,-9.64 17.43,0 26.15,8.71 26.15,26.14l0 441.68 2.78 0c26.43,-24.71 47.93,-43.71 64.51,-57 16.43,-13.29 37.64,-24.72 63.65,-34.29 26.14,-9.57 57,-14.36 92.58,-14.36 62.14,0 111.51,18.72 148.08,56.15 36.58,37.58 54.86,87.01 54.86,148.3l0 292.1c0,23.71 0.72,41.07 2.15,52.07 1.42,11 7.14,20.58 17.14,28.72 10,8.29 26.93,12.43 50.79,12.43l8.14 0c8.29,0 14.01,1.36 17.15,4.07 3.28,2.72 5.36,9.57 6.21,20.58 0,7.28 -1.85,13.71 -5.57,19.28 -3.57,5.43 -8.57,8.15 -15,8.15 -54,-2.72 -102.01,-4.07 -144.01,-4.07 -43.01,0 -90.58,1.35 -142.73,4.07 -7.29,0 -12.72,-2.72 -16.29,-8.15 -3.71,-5.57 -5.57,-12 -5.57,-19.28 0.86,-11.86 3.36,-18.93 7.5,-21.22 4.14,-2.29 12.15,-3.43 24,-3.43 23.86,0 40.79,-4.14 50.79,-12.43 10,-8.14 15.72,-17.5 17.15,-28.07 1.43,-10.43 2.14,-28.01 2.14,-52.72l0 -290.81c0,-42.01 -13.07,-74.23 -39.22,-96.66 -26,-22.43 -56.36,-33.64 -91.08,-33.64 -42.14,0 -78.5,10.5 -109.08,31.5 -30.71,21 -51.07,42.08 -61.07,63.22l0 326.39c0,23.71 0.71,41.07 2.14,52.07 1.28,11 7,20.58 17.14,28.72 10,8.29 26.86,12.43 50.58,12.43l8.36 0c8.14,0 13.85,1.36 17.14,4.07 3.14,2.72 5.22,9.57 6.22,20.58 0,7.28 -1.86,13.71 -5.58,19.28 -3.71,5.43 -8.71,8.15 -15,8.15 -53.15,-2.72 -101.15,-4.07 -144.01,-4.07 -41.15,0 -88.72,1.35 -142.73,4.07zm821.65 0c-6.43,0 -11.72,-2.72 -15.86,-8.15 -4.14,-5.57 -6.21,-12 -6.21,-19.28 1,-11.86 3.78,-18.93 8.35,-21.22 4.57,-2.29 12.79,-3.43 24.65,-3.43 23.71,0 40.64,-4.14 50.79,-12.43 10,-8.14 15.71,-17.72 17.14,-28.72 1.29,-11 1.93,-28.36 1.93,-52.07l0 -314.17c0,-23.72 -0.64,-41.08 -1.93,-52.08 -1.43,-11 -7.14,-20.57 -17.14,-28.72 -10.15,-8.28 -27.08,-12.43 -50.79,-12.43 -11,0 -19.22,-1.57 -24.65,-4.71 -5.57,-3.29 -8.35,-10.86 -8.35,-22.72 0,-5.43 1.85,-10.71 5.57,-15.86 3.57,-5 9.07,-7.93 16.5,-8.78 57.58,-8.29 106.94,-20.22 148.08,-35.79 12.72,-4.57 23.22,-7.29 31.51,-8.15l4.07 0c14.71,0 22.07,8.72 22.07,26.15l0 477.26c0,23.71 0.86,41.07 2.57,52.07 1.86,11 7.86,20.58 18,28.72 10.01,8.29 26.86,12.43 50.58,12.43l8.36 0c7.29,0 12.79,1.36 16.5,4.07 3.57,2.72 5.86,9.57 6.86,20.58 0,7.28 -1.86,13.71 -5.57,19.28 -3.72,5.43 -9.22,8.15 -16.51,8.15 -53,-2.72 -101,-4.07 -144.01,-4.07 -41.15,0 -88.65,1.35 -142.51,4.07zm135.65 -800.86c-25.57,0 -47.07,-8 -64.5,-24 -17.29,-16.01 -25.93,-35.94 -25.93,-59.8 0,-21 10.5,-39.71 31.5,-56.14 21,-16.43 44.79,-24.65 71.36,-24.65 22.86,0 41.58,8 56.15,24 14.72,16 22.07,36.29 22.07,60.87 0,22 -8.71,40.79 -26.14,56.36 -17.43,15.57 -38.93,23.36 -64.51,23.36zm263.38 800.86c-6.42,0 -11.71,-2.72 -15.85,-8.15 -4,-5.57 -6,-12 -6,-19.28 0.85,-11.86 3.57,-18.93 8.14,-21.22 4.57,-2.29 12.79,-3.43 24.64,-3.43 23.86,0 40.79,-4.14 50.79,-12.43 10.01,-8.14 15.72,-17.72 17.15,-28.72 1.43,-11 2.14,-28.36 2.14,-52.07l0 -314.17c0,-23.72 -0.71,-41.08 -2.14,-52.08 -1.43,-11 -7.14,-20.57 -17.15,-28.72 -10,-8.28 -26.93,-12.43 -50.79,-12.43 -11,0 -19.21,-1.57 -24.64,-4.71 -5.43,-3.29 -8.14,-10.86 -8.14,-22.72 0,-5.43 1.78,-10.71 5.35,-15.86 3.72,-5 9.22,-7.93 16.5,-8.78 59.44,-9.15 108.37,-21.08 146.8,-35.79 15.58,-4.57 26.08,-7.29 31.51,-8.15l4.07 0c14.71,0 22.07,8.72 22.07,26.15l0 86.36 4.07 0c26.43,-24.71 47.94,-43.71 64.51,-57 16.43,-13.29 37.65,-24.72 63.65,-34.29 26.14,-9.57 57,-14.36 92.58,-14.36 62.15,0 111.51,18.72 148.08,56.15 36.58,37.58 54.87,87.01 54.87,148.3l0 292.1c0,23.71 0.92,41.07 2.78,52.07 1.86,11 7.79,20.58 17.79,28.72 10.14,8.29 27.07,12.43 50.79,12.43l8.36 0c7.28,0 12.71,1.36 16.28,4.07 3.72,2.72 6,9.57 6.86,20.58 0,7.28 -2,13.71 -6,19.28 -4.14,5.43 -9.43,8.15 -15.86,8.15 -53,-2.72 -101.01,-4.07 -144.01,-4.07 -41.15,0 -88.72,1.35 -142.73,4.07 -6.28,0 -11.5,-2.72 -15.64,-8.15 -4.14,-5.57 -6.22,-12 -6.22,-19.28 0.86,-11.86 3.36,-18.93 7.5,-21.22 4.15,-2.29 12.15,-3.43 24.01,-3.43 23.86,0 40.79,-4.14 50.79,-12.43 10,-8.14 15.93,-17.72 17.78,-28.72 1.86,-11 2.79,-28.36 2.79,-52.07l0 -290.81c0,-42.01 -13.29,-74.23 -39.86,-96.66 -26.43,-22.43 -57.01,-33.64 -91.72,-33.64 -42.15,0 -78.3,10.28 -108.44,30.86 -30.15,20.57 -50.72,41.86 -61.72,63.86l0 326.39c0,23.71 0.93,41.07 2.78,52.07 1.86,11 7.79,20.58 17.79,28.72 10,8.29 26.93,12.43 50.79,12.43l8.15 0c7.28,0 12.78,1.36 16.5,4.07 3.71,2.72 6,9.57 6.85,20.58 0,7.28 -1.85,13.71 -5.57,19.28 -3.57,5.43 -9,8.15 -16.28,8.15 -53.15,-2.72 -101.16,-4.07 -144.02,-4.07 -41.14,0 -88.72,1.35 -142.73,4.07zm1113.75 259.31l-5.57 0c-12.72,0 -21.36,-7.79 -25.93,-23.36 -1,-2.72 -1.5,-6.86 -1.5,-12.43 0,-10.86 5.07,-18.15 15.21,-21.86 45.72,-19.15 79.51,-46.58 101.37,-82.3 22,-35.71 36.22,-79.86 42.65,-132.44 6.28,-52.57 9.42,-123.65 9.42,-213.23l0 -482.83c-0.85,-22.86 -2.85,-41.36 -6,-55.5 -3.28,-14.15 -11.28,-26.01 -24,-35.58 -12.86,-9.57 -32.57,-14.36 -59.15,-14.36l-8.14 0c-9.14,0 -15.79,-1.64 -19.93,-4.93 -4.14,-3.14 -6.64,-11.14 -7.5,-24 0,-8.14 2.29,-15.21 6.86,-21.22 4.57,-6 10.5,-9 17.78,-9 58.58,2.86 113.01,4.29 163.3,4.29 55.72,0 112.87,-1.43 171.45,-4.29 8.14,0 14.29,3 18.43,9 4.14,6.01 6.21,13.08 6.21,21.22 -0.85,13.72 -3.85,21.93 -9,24.65 -5,2.85 -13.85,4.28 -26.57,4.28 -26.57,0 -46.29,4.79 -59.15,14.36 -12.71,9.57 -20.71,21.43 -24,35.58 -3.14,14.14 -5.14,32.64 -6,55.5l0 529.55c0,117.87 -20.86,214.52 -62.58,289.95 -41.57,75.44 -110.79,125.09 -207.66,148.95zm626.84 -246.88c-54.86,0 -99.22,-15.58 -133.08,-46.72 -33.86,-31.01 -50.79,-69.87 -50.79,-116.58 0,-57.58 19.21,-100.8 57.65,-129.66 38.43,-28.72 84.15,-47.43 137.15,-56.15 53.01,-8.71 121.58,-15.36 205.73,-19.93l0 -108.22c0,-44.86 -11.21,-78.94 -33.64,-102.23 -22.43,-23.28 -58.29,-34.93 -107.58,-34.93 -28.43,0 -53.15,8.65 -74.15,25.93 -21,17.43 -31.5,40.79 -31.5,70.08 0,14.57 3.42,26.65 10.28,36.22 6.86,9.57 14.15,17.57 21.86,24 7.86,6.43 11.79,10.07 11.79,10.93 0,5.57 -5.72,12.72 -17.15,21.43 -11.43,8.57 -25.43,12.86 -42,12.86 -27.43,0 -49.15,-10 -65.15,-30 -16,-20.15 -24,-43.94 -24,-71.37 0,-47.57 21.29,-82.79 63.86,-105.65 42.58,-22.86 94.01,-34.29 154.3,-34.29 75.01,0 136.01,14.15 183.02,42.43 47.15,28.44 70.72,81.01 70.72,157.73l0 319.75c0.86,19.14 6.79,37.43 17.79,54.86 11,17.29 28.86,25.93 53.57,25.93 7.29,0 12.5,1.36 15.65,4.07 3.28,2.86 4.93,8.86 4.93,18 0,10.86 -8.5,18.86 -25.51,24.01 -16.85,5 -33.5,7.5 -49.93,7.5 -34.72,0 -65.36,-10.08 -91.94,-30.22 -26.57,-20.15 -41.64,-47.15 -45.22,-81.01 -19.28,35.72 -48.78,63.15 -88.5,82.3 -39.72,19.28 -82.44,28.93 -128.16,28.93zm43.72 -74.15c31.15,0 60.01,-7.79 86.58,-23.36 26.43,-15.43 47.43,-36.65 63.01,-63.65 15.57,-27 23.35,-56.93 23.35,-89.8l0 -78.22c-96,7.29 -163.65,22.79 -202.94,46.51 -39.43,23.86 -59.15,62.29 -59.15,115.29 0,62.15 29.72,93.23 89.15,93.23zm751.78 74.15c-51.29,0 -98.86,-13.93 -142.72,-41.79 -43.86,-28.01 -79.08,-66.87 -105.66,-116.59 -26.43,-49.86 -39.64,-106.36 -39.64,-169.51 0,-56.72 13.71,-110.23 41.14,-160.52 27.44,-50.29 65.37,-90.5 113.8,-120.65 48.43,-30.14 102.37,-45.22 161.8,-45.22 28.29,0 56.65,3.43 85.08,10.29 28.29,6.86 52.93,16.22 73.94,28.07l4.28 0 0 -209.8c0,-23.72 -0.71,-41.08 -2.14,-52.08 -1.43,-11 -7.15,-20.64 -17.15,-28.93 -10,-8.14 -26.93,-12.21 -50.79,-12.21 -11,0 -19.21,-1.65 -24.64,-4.93 -5.43,-3.15 -8.15,-10.65 -8.15,-22.51 0,-5.57 1.79,-10.85 5.36,-15.85 3.72,-5 9.22,-7.93 16.5,-8.79 57.58,-8.29 106.94,-20.22 148.09,-35.79 12.86,-4.57 23.36,-7.29 31.5,-8.14l4.29 0c14.57,0 21.86,8.64 21.86,25.93l0 846.29c0,54 35.64,81.01 106.94,81.01 15.57,0 23.35,7.28 23.35,21.86 0,12.85 -7.78,20.64 -23.35,23.36l-217.95 15c-6.43,0 -10.15,-2 -11.15,-6 -0.85,-4.15 -1.28,-11.29 -1.28,-21.43l0 -54.87 -4.07 0c-23.86,24.72 -52.94,44.86 -87.23,60.44 -34.29,15.57 -68.29,23.36 -102.01,23.36zm46.51 -68.58c32,0 59.22,-6.22 81.65,-18.65 22.43,-12.28 43.72,-28.93 63.86,-49.93l0 -362.17c-8.29,-26.44 -25.43,-50.65 -51.43,-72.65 -26.15,-22.01 -58.86,-33.01 -98.15,-33.01 -35.72,0 -67.94,11.22 -96.66,33.65 -28.85,22.43 -51.5,55.15 -67.93,98.15 -16.43,43 -24.65,93.72 -24.65,152.16 0,70.43 16.65,130.08 49.94,178.94 33.43,49.01 81.22,73.51 143.37,73.51zm458.18 56.15c-7.28,0 -12.78,-2.72 -16.5,-8.15 -3.71,-5.57 -5.57,-12 -5.57,-19.28 1,-11.86 3.57,-18.93 7.71,-21.22 4,-2.29 12.01,-3.43 24.01,-3.43 23.71,0 40.57,-4.14 50.57,-12.43 10.15,-8.14 16.15,-17.72 18,-28.72 1.72,-11 2.58,-28.36 2.58,-52.07l0 -669.28c0,-23.86 -0.65,-41.29 -1.93,-52.29 -1.43,-10.86 -7.15,-20.43 -17.15,-28.72 -10.14,-8.28 -27.07,-12.42 -50.79,-12.42 -11,0 -19.21,-1.58 -24.64,-4.72 -5.58,-3.14 -8.36,-10.71 -8.36,-22.72 0,-5.43 1.86,-10.64 5.57,-15.64 3.72,-5 9.22,-8 16.5,-9 45.72,-6.43 80.22,-13.5 103.51,-21.22 23.29,-7.71 36.79,-12.07 40.51,-13.07 17.28,-6.43 29.14,-9.64 35.57,-9.64 17.43,0 26.15,8.71 26.15,26.14l0 441.68 2.78 0c26.43,-24.71 47.86,-43.71 64.29,-57 16.58,-13.29 37.86,-24.72 63.87,-34.29 26,-9.57 56.86,-14.36 92.58,-14.36 62.14,0 111.51,18.72 148.08,56.15 36.58,37.58 54.86,87.01 54.86,148.3l0 292.1c0,23.71 0.72,41.07 2.15,52.07 1.28,11 7,20.58 17.14,28.72 10,8.29 26.93,12.43 50.79,12.43l8.14 0c8.29,0 14.01,1.36 17.15,4.07 3.14,2.72 5.21,9.57 6.21,20.58 0,7.28 -1.85,13.71 -5.57,19.28 -3.57,5.43 -8.57,8.15 -15,8.15 -54,-2.72 -102.01,-4.07 -144.01,-4.07 -43.01,0 -90.58,1.35 -142.73,4.07 -7.29,0 -12.79,-2.72 -16.5,-8.15 -3.57,-5.57 -5.36,-12 -5.36,-19.28 0.86,-11.86 3.36,-18.93 7.5,-21.22 4.14,-2.29 12.15,-3.43 24,-3.43 23.72,0 40.65,-4.14 50.79,-12.43 10.01,-8.14 15.72,-17.5 17.15,-28.07 1.28,-10.43 1.93,-28.01 1.93,-52.72l0 -290.81c0,-42.01 -13,-74.23 -39.01,-96.66 -26,-22.43 -56.43,-33.64 -91.29,-33.64 -42,0 -78.29,10.5 -108.87,31.5 -30.71,21 -51.07,42.08 -61.07,63.22l0 326.39c0,23.71 0.64,41.07 1.92,52.07 1.43,11 7.15,20.58 17.15,28.72 10.14,8.29 27.07,12.43 50.79,12.43l8.36 0c8.14,0 13.86,1.36 17.14,4.07 3.14,2.72 5.14,9.57 6,20.58 0,7.28 -1.78,13.71 -5.36,19.28 -3.71,5.43 -8.78,8.15 -15.21,8.15 -53.01,-2.72 -101.01,-4.07 -144.01,-4.07 -41.15,0 -88.65,1.35 -142.52,4.07zm984.74 12.43c-54.87,0 -99.23,-15.58 -133.09,-46.72 -33.86,-31.01 -50.79,-69.87 -50.79,-116.58 0,-57.58 19.22,-100.8 57.65,-129.66 38.43,-28.72 84.15,-47.43 137.16,-56.15 53,-8.71 121.58,-15.36 205.73,-19.93l0 -108.22c0,-44.86 -11.22,-78.94 -33.65,-102.23 -22.29,-23.28 -58.15,-34.93 -107.58,-34.93 -28.29,0 -53,8.65 -74.15,25.93 -21,17.43 -31.5,40.79 -31.5,70.08 0,14.57 3.43,26.65 10.29,36.22 6.85,9.57 14.21,17.57 22.07,24 7.71,6.43 11.57,10.07 11.57,10.93 0,5.57 -5.71,12.72 -17.14,21.43 -11.43,8.57 -25.36,12.86 -41.79,12.86 -27.43,0 -49.15,-10 -65.15,-30 -16,-20.15 -24,-43.94 -24,-71.37 0,-47.57 21.21,-82.79 63.64,-105.65 42.58,-22.86 94.01,-34.29 154.3,-34.29 75.01,0 136.09,14.15 183.24,42.43 47,28.44 70.5,81.01 70.5,157.73l0 319.75c1,19.14 7,37.43 18,54.86 10.86,17.29 28.65,25.93 53.37,25.93 7.28,0 12.57,1.36 15.85,4.07 3.15,2.86 4.72,8.86 4.72,18 0,10.86 -8.43,18.86 -25.29,24.01 -17,5 -33.72,7.5 -50.15,7.5 -34.71,0 -65.36,-10.08 -91.93,-30.22 -26.43,-20.15 -41.51,-47.15 -45.22,-81.01 -19.15,35.72 -48.65,63.15 -88.51,82.3 -39.72,19.28 -82.44,28.93 -128.15,28.93zm43.93 -74.15c31,0 59.79,-7.79 86.36,-23.36 26.58,-15.43 47.58,-36.65 63.01,-63.65 15.57,-27 23.36,-56.93 23.36,-89.8l0 -78.22c-96.01,7.29 -163.66,22.79 -202.95,46.51 -39.29,23.86 -58.93,62.29 -58.93,115.29 0,62.15 29.71,93.23 89.15,93.23zm732.28 71.36c-23.72,-51.15 -57.08,-133.01 -100.08,-245.59 -3.57,-9.15 -16.15,-42.01 -37.72,-98.58 -21.43,-56.72 -41.79,-104.3 -61.08,-142.73 -15.43,-35.72 -30,-60.15 -43.71,-73.29 -13.72,-13.29 -33.86,-21.79 -60.44,-25.51 -2.71,-0.85 -7.71,-1.78 -15,-2.78 -7.43,-0.86 -12,-3.15 -13.72,-6.86 -1.85,-3.57 -2.78,-9.93 -2.78,-19.07 0,-11 2.93,-17.86 8.78,-20.58 6.01,-2.71 13.36,-4.35 22.08,-4.93 8.71,-0.42 14.43,-0.64 17.14,-0.64 55.72,-2.71 99.58,5.29 131.59,24 32,18.72 58.5,51.44 79.5,98.16 1,1.85 18.86,45.71 53.58,131.58 42,107.01 72.15,179.73 90.44,218.16l4.28 0 135.66 -359.39c4.57,-15.57 6.86,-26.57 6.86,-33 0,-10 -4.58,-16.86 -13.72,-20.57 -9.14,-3.58 -24.22,-5.36 -45.22,-5.36l-8.14 0c-7.43,0 -12.72,-1.36 -15.86,-4.07 -3.14,-2.86 -5.21,-9.72 -6.21,-20.58 0,-6.43 1.64,-12.64 4.92,-18.64 3.15,-5.86 7.93,-8.79 14.36,-8.79 52.15,2.72 96.51,4.07 133.09,4.07 14.57,0 42.86,-0.92 84.86,-2.78l28.93 -1.29c6.43,0 11.43,2.93 15,8.79 3.72,6 5.58,12.21 5.58,18.64 -1,10.86 -3.29,17.72 -6.86,20.58 -3.72,2.71 -9.22,4.07 -16.5,4.07 -33.86,0 -59.94,5.5 -78.23,16.5 -18.28,10.86 -33.78,32.29 -46.5,64.29 -21.14,53.15 -60.5,150.59 -118.08,292.31 -57.58,141.73 -87.3,213.02 -89.15,213.88l-57.65 0z"/>
   <path class="fil1" d="M4058.88 2184.68c-54.29,0 -95.65,-10.29 -124.08,-30.86 -28.29,-20.57 -42.43,-54.36 -42.43,-101.37l0 -267.24c0,-7.28 -3.14,-12.78 -9.43,-16.5 -6.14,-3.71 -14.14,-5.57 -24,-5.57l-14.15 0 0 -16.72 155.59 0 0 16.72 -14.36 0c-9.86,0 -17.86,1.86 -24,5.57 -6.14,3.72 -9.22,9.22 -9.22,16.5l0 271.74c0,38.15 10.58,64.8 31.72,79.94 21.15,15 50.43,22.5 87.87,22.5 33.43,0 61.22,-7.71 83.36,-23.14 22.29,-15.43 33.43,-41.86 33.43,-79.3l0 -271.74c0,-7.28 -3,-12.78 -9,-16.5 -6,-3.71 -14.14,-5.57 -24.43,-5.57l-13.5 0 0 -16.72 125.37 0 0 16.72 -14.36 0c-9.86,0 -17.86,1.86 -24,5.57 -6.15,3.72 -9.22,9.22 -9.22,16.5l0 267.24c0,45.72 -13.79,79.15 -41.36,100.3 -27.57,21.29 -67.5,31.93 -119.8,31.93zm242.6 -6.22l0 -16.07 17.79 0c24,0 36,-7.43 36,-22.29l0 -354.89c0,-14.71 -12,-22.07 -36,-22.07l-17.79 0 0 -16.72 167.8 0 0 16.72 -17.15 0c-24.28,0 -36.43,7.36 -36.43,22.07l0 354.89c0,14.86 12.15,22.29 36.43,22.29l17.15 0 0 16.07 -167.8 0zm201.23 0l161.16 -435.68 30.86 0 -161.8 435.68 -30.22 0zm441.26 6.22c-54.3,0 -95.66,-10.29 -124.09,-30.86 -28.43,-20.57 -42.64,-54.36 -42.64,-101.37l0 -267.24c0,-7.28 -3.08,-12.78 -9.22,-16.5 -6.14,-3.71 -14.14,-5.57 -24,-5.57l-14.15 0 0 -16.72 155.38 0 0 16.72 -14.15 0c-9.86,0 -17.86,1.86 -24,5.57 -6.14,3.72 -9.22,9.22 -9.22,16.5l0 271.74c0,38.15 10.58,64.8 31.72,79.94 21.15,15 50.43,22.5 87.87,22.5 33.43,0 61.22,-7.71 83.36,-23.14 22.29,-15.43 33.43,-41.86 33.43,-79.3l0 -271.74c0,-7.28 -3,-12.78 -9,-16.5 -6,-3.71 -14.14,-5.57 -24.43,-5.57l-13.5 0 0 -16.72 125.15 0 0 16.72 -14.14 0c-9.86,0 -17.86,1.86 -24,5.57 -6.14,3.72 -9.22,9.22 -9.22,16.5l0 267.24c0,45.72 -13.78,79.15 -41.36,100.3 -27.57,21.29 -67.5,31.93 -119.79,31.93zm640.13 -22.93l16.5 0 0 16.71 -155.37 0 0 -16.71 18.43 0c6.57,0 12.43,-1.5 17.57,-4.5 5.14,-3.14 7.71,-6.79 7.71,-10.93 0,-2.43 -0.78,-4.64 -2.35,-6.64l-106.3 -151.3 -111.65 149.37c-2,2 -3,4.64 -3,7.93 0,4.57 2.57,8.43 7.71,11.57 5.15,3 10.57,4.5 16.29,4.5l21 0 0 16.71 -133.94 0 0 -16.71 19.72 0c6.14,0 11.21,-1.5 15.21,-4.5 3.86,-3.14 7.29,-6.64 10.29,-10.5 3.14,-4 5.36,-6.57 6.64,-7.72l132.66 -177.87 -124.08 -176.37c-9.86,-14.43 -20.58,-21.65 -32.15,-21.65l-16.5 0 0 -16.72 155.37 0 0 16.72 -18.43 0c-6.57,0 -12.43,1.5 -17.57,4.5 -5.15,3.14 -7.72,6.79 -7.72,10.93 0,2.43 0.79,4.64 2.36,6.64l91.94 130.94 96.43 -129.01c2,-2.43 3,-5.07 3,-7.93 0,-4.57 -2.57,-8.43 -7.71,-11.57 -5.15,-3 -10.57,-4.5 -16.29,-4.5l-21 0 0 -16.72 133.94 0 0 16.72 -19.72 0c-6.28,0 -11.35,1.5 -15.21,4.5 -3.86,3.14 -7.36,6.65 -10.5,10.5 -3,4 -5.15,6.57 -6.43,7.72l-117.23 157.51 138.23 196.73c9.86,14.43 20.57,21.65 32.15,21.65zm366.46 22.93c-23.43,0 -44.01,-3.29 -61.72,-9.86 -17.72,-6.57 -35.15,-14.79 -52.29,-24.64 -10,-5.86 -16.22,-8.79 -18.65,-8.79 -1.57,0 -2.93,0.93 -4.07,2.79 -1,1.85 -1.5,4.42 -1.5,7.71l0 26.57 -22.07 0 0 -117.22 17.78 0c2.43,19.29 9.93,36.36 22.51,51.22 12.57,14.86 28,26.36 46.29,34.5 18.28,8.29 37.36,12.43 57.22,12.43 31.57,0 57.07,-7.43 76.5,-22.29 19.29,-14.85 28.93,-36.07 28.93,-63.64 0,-16.86 -5.07,-31.36 -15.21,-43.51 -10,-12.14 -22.22,-22.22 -36.65,-30.22 -14.43,-8 -34.36,-17.57 -59.79,-28.71 -28.43,-11.86 -51.15,-22.72 -68.15,-32.58 -17.14,-9.85 -31.72,-22.5 -43.72,-37.93 -11.85,-15.43 -17.78,-34.5 -17.78,-57.22 0,-33.29 12.93,-58.79 38.79,-76.51 26,-17.71 60.57,-26.57 103.72,-26.57 20.57,0 38.36,2.71 53.36,8.14 15,5.29 31,12.29 48.01,21.01 7,4.42 11.71,6.64 14.14,6.64 2.43,0 3.64,-1.86 3.64,-5.57l0 -27.65 22.93 0 0 117.87 -18 0c-3.28,-29.72 -15.21,-52.86 -35.79,-69.44 -20.57,-16.71 -45.64,-25.07 -75.22,-25.07 -29.72,0 -52.86,6.29 -69.43,18.86 -16.72,12.57 -25.08,29.57 -25.08,51 0,14.72 4.65,27.44 13.93,38.15 9.29,10.72 20.72,19.57 34.29,26.57 13.57,7.01 32.29,15.43 56.15,25.29 29.15,12 52.86,23.15 71.15,33.43 18.43,10.29 34,24.08 46.72,41.37 12.71,17.28 19.07,38.64 19.07,64.07 0,37.86 -14,67.29 -42,88.3 -28.01,21 -64.01,31.5 -108.01,31.5zm189.01 132.65l0 -15.43 11.58 0c9.86,0 17.93,-1.64 24.21,-4.92 6.15,-3.29 9.22,-8.22 9.22,-14.79l0 -346.32c0,-4.57 -1.36,-7.86 -4.07,-9.86 -2.72,-2 -5.72,-3 -9,-3 -3.29,0 -9.43,1.65 -18.43,4.93l-4.29 -13.71 77.79 -27.65 15.43 0 0 47.58c11.86,-18.58 26.86,-31.86 45.01,-39.86 18.14,-8.01 37.29,-12.01 57.43,-12.01 40.29,0 71.94,12.29 94.94,36.87 23.14,24.71 34.72,60.36 34.72,106.93 0,55.44 -12.29,95.73 -36.87,120.87 -24.43,25.15 -60.07,37.72 -106.93,37.72 -19.43,0 -37.36,-4.14 -53.79,-12.43 -16.43,-8.14 -27.94,-18.22 -34.51,-30.22l0 139.52c0,6.57 3.07,11.64 9.22,15.21 6.14,3.43 13.93,5.14 23.36,5.14l10.5 0 0 15.43 -145.52 0zm186.88 -156.22c31.72,0 54.65,-11.79 68.79,-35.36 14.29,-23.72 21.43,-55.94 21.43,-96.66 0,-40.71 -7.43,-71.29 -22.29,-91.72 -14.85,-20.29 -37.93,-30.43 -69.22,-30.43 -11.85,0 -24.28,3.57 -37.29,10.72 -12.85,7.28 -23.71,17.35 -32.57,30.21 -8.86,13 -13.29,27.93 -13.29,44.79l0 86.37c0,23.14 7.5,42.57 22.5,58.29 15.01,15.86 35.65,23.79 61.94,23.79zm462.9 -141.87l-221.59 0c-0.43,3.28 -0.65,8.21 -0.65,14.78 0,38.72 9.22,69.79 27.65,93.23 18.29,23.43 42.43,35.14 72.43,35.14 27.15,0 49.58,-7.07 67.3,-21.21 17.71,-14.29 29.21,-36.22 34.5,-65.8l18 0c-3.29,32.86 -15.64,59.3 -37.07,79.3 -21.43,20 -51.51,30 -90.23,30 -47.72,0 -84.79,-13.07 -111.22,-39.22 -26.58,-26.14 -39.86,-63.5 -39.86,-112.08 0,-46.86 13.28,-83.79 39.86,-110.8 26.43,-26.86 62.93,-40.29 109.51,-40.29 42.72,0 75.29,11.36 97.72,34.08 22.43,22.86 33.65,52.43 33.65,88.72l0 14.15zm-129.66 -113.59c-24.14,0 -43.86,8 -59.14,24.01 -15.29,16.14 -25.36,38 -30.22,65.57l167.8 0c-0.86,-23.14 -7.5,-43.86 -19.93,-62.14 -12.57,-18.29 -32.08,-27.44 -58.51,-27.44zm315.46 279.03c-47.29,0 -84.01,-13.07 -110.15,-39.22 -26.15,-26.14 -39.22,-63.5 -39.22,-112.08 0,-46.86 13.29,-83.79 39.86,-110.8 26.57,-26.86 63.51,-40.29 110.8,-40.29 19.71,0 38.64,2.86 56.79,8.58 18.14,5.71 32.93,15.57 44.36,29.57l6.21 -38.15 15.43 0 0 102.44 -14.78 0c-4.15,-26.43 -14.36,-46.22 -30.65,-59.36 -16.14,-13.14 -36.57,-19.72 -61.29,-19.72 -34.57,0 -61.22,11.86 -79.94,35.58 -18.71,23.57 -28.07,54.5 -28.07,92.79 0,38.72 8.93,69.79 26.79,93.23 17.86,23.43 41.64,35.14 71.36,35.14 27.15,0 49.36,-7.07 66.65,-21.21 17.29,-14.29 28.36,-36.22 33.22,-65.8l18.64 0c-3.28,32.86 -15.43,59.3 -36.43,79.3 -21,20 -50.86,30 -89.58,30zm232.74 -352.53c-10.72,0 -19.29,-3.15 -25.72,-9.43 -6.29,-6.43 -9.43,-14.57 -9.43,-24.43 0,-10.29 3.14,-18.5 9.43,-24.65 6.43,-6.14 15,-9.21 25.72,-9.21 10.28,0 18.64,3.07 25.07,9.21 6.29,6.15 9.43,14.36 9.43,24.65 0,9.86 -3.14,18 -9.43,24.43 -6.43,6.28 -14.79,9.43 -25.07,9.43zm-68.58 346.31l0 -15.43 11.79 0c9.85,0 17.78,-1.64 23.78,-4.92 6,-3.29 9,-8.22 9,-14.79l0 -208.09c0,-9 -4.35,-13.5 -13.07,-13.5 -2,0 -5.07,0.71 -9.21,2.14 -4.15,1.43 -7,2.36 -8.58,2.79l-4.5 -14.15 77.8 -27.22 15.43 0 0 258.03c0,6.57 3,11.5 9,14.79 6,3.28 13.93,4.92 23.79,4.92l11.78 0 0 15.43 -147.01 0zm262.31 6.22c-25,0 -44.65,-5.86 -58.94,-17.57 -14.14,-11.72 -21.21,-27.65 -21.21,-47.79 0,-30.15 15.71,-54.87 47.15,-74.15 31.43,-19.29 79.86,-33.51 145.29,-42.65l0 -32.15c0,-20.85 -6.57,-36.64 -19.71,-47.36 -13.15,-10.71 -30.65,-16.07 -52.51,-16.07 -15.57,0 -29.93,3.07 -43.07,9.21 -13.15,6.15 -19.72,12.72 -19.72,19.72 0,2.43 0.36,5.5 1.07,9.22 0.86,3.71 1.29,6.64 1.29,8.78 0,6.15 -1.86,11.5 -5.57,16.08 -3.72,4.42 -9.65,6.64 -17.79,6.64 -7,0 -12.86,-2.57 -17.57,-7.72 -4.72,-5.14 -7.07,-12.43 -7.07,-21.85 0,-20.58 11.71,-36.51 35.14,-47.8 23.43,-11.28 52.01,-16.93 85.72,-16.93 37.86,0 67.08,8.29 87.65,24.86 20.58,16.72 30.86,39.44 30.86,68.15l0 167.38c0,13.14 4.5,19.71 13.51,19.71 5.85,0 13.28,-1.64 22.28,-4.93l0 10.5c-6.14,5.29 -13.93,9.43 -23.36,12.43 -9.57,2.86 -19.28,4.29 -29.14,4.29 -11.15,0 -20.79,-2.29 -28.93,-6.86 -8.29,-4.57 -12.43,-12 -12.43,-22.29l0 -18.43c-16.43,18.15 -34.65,30.58 -54.65,37.29 -19.86,6.86 -39.29,10.29 -58.29,10.29zm28.5 -24.65c15.15,0 31.08,-5 47.79,-15 16.72,-9.86 28.72,-21.14 36,-33.86l0 -88.29c-43.57,8.71 -77,21.14 -100.29,37.29 -23.15,16.28 -34.72,34.5 -34.72,54.65 0,14.85 4.5,26.07 13.5,33.64 9,7.72 21.58,11.57 37.72,11.57zm206.16 18.43l0 -15.43 10.93 0c10.29,0 18.43,-1.64 24.43,-4.92 6,-3.29 9,-8.22 9,-14.79l0 -357.46c0,-8.58 -4.35,-12.86 -13.07,-12.86 -3.57,0 -9.5,1.64 -17.79,4.93l-4.28 -14.15 77.79 -27.86 15.43 0 0 407.4c0,6.57 2.93,11.5 8.79,14.79 6,3.28 13.93,4.92 23.79,4.92l10.5 0 0 15.43 -145.52 0zm251.17 -346.31c-10.72,0 -19.29,-3.15 -25.72,-9.43 -6.28,-6.43 -9.43,-14.57 -9.43,-24.43 0,-10.29 3.15,-18.5 9.43,-24.65 6.43,-6.14 15,-9.21 25.72,-9.21 10.29,0 18.57,3.07 24.86,9.21 6.43,6.15 9.64,14.36 9.64,24.65 0,9.86 -3.21,18 -9.64,24.43 -6.29,6.28 -14.57,9.43 -24.86,9.43zm-68.58 346.31l0 -15.43 11.79 0c9.86,0 17.79,-1.64 23.79,-4.92 5.85,-3.29 8.78,-8.22 8.78,-14.79l0 -208.09c0,-9 -4.28,-13.5 -12.86,-13.5 -2,0 -5.07,0.71 -9.21,2.14 -4.14,1.43 -7.07,2.36 -8.79,2.79l-4.28 -14.15 77.79 -27.22 15.43 0 0 258.03c0,6.57 3,11.5 9,14.79 6,3.28 13.93,4.92 23.79,4.92l11.78 0 0 15.43 -147.01 0zm309.89 6.22c-46.58,0 -79.51,-13 -98.8,-39l-6.86 37.71 -15.43 0 0 -91.93 15.43 0c4.58,21.43 14.65,38.43 30.22,51 15.72,12.43 35.29,18.65 58.72,18.65 23.86,0 42.29,-4.29 55.29,-12.86 13,-8.72 19.5,-21.29 19.5,-37.72 0,-12.72 -5.78,-22.64 -17.36,-29.79 -11.57,-7.28 -29.28,-15 -53.14,-23.14 -22.15,-8.29 -40.15,-16 -54.01,-23.15 -13.71,-7.28 -25.5,-17.21 -35.36,-29.79 -9.86,-12.57 -14.79,-28.5 -14.79,-47.79 0,-23.86 9.22,-42.29 27.65,-55.29 18.57,-12.86 44.5,-19.29 77.79,-19.29 18.58,0 36.65,3.08 54.22,9.22 17.72,6.14 31.36,15.22 40.93,27.22l6.65 -36.44 15.43 0 0 89.37 -15.43 0c-4.86,-19.29 -14.65,-34.93 -29.36,-46.93 -14.58,-11.86 -33.15,-17.79 -55.72,-17.79 -19.72,0 -35.58,3.93 -47.58,11.79 -12,7.71 -18,18.36 -18,31.93 0,14.86 6.29,26.43 18.86,34.72 12.57,8.14 31.65,16.57 57.22,25.28 21.72,7.72 39.22,14.79 52.5,21.22 13.15,6.43 24.29,15.5 33.44,27.22 9.28,11.71 13.93,26.64 13.93,44.79 0,27.14 -10.79,47.36 -32.36,60.64 -21.58,13.43 -49.44,20.15 -83.58,20.15zm348.03 -62.36l21 0c-2,21.43 -10.5,37.14 -25.5,47.14 -15.15,10.15 -33.58,15.22 -55.29,15.22 -30.86,0 -54.37,-6.36 -70.51,-19.07 -16,-12.86 -24,-34.08 -24,-63.65l0 -189.45 -48.01 0 0 -24.21 48.01 0 0 -52.94 43.29 -29.14 14.78 0 0 82.08 87.01 0 0 24.21 -87.01 0 0 188.16c0,21 3.79,36.58 11.36,46.72 7.58,10 19.43,15 35.58,15 12.71,0 23.71,-3.21 33,-9.64 9.29,-6.29 14.72,-16.43 16.29,-30.43z"/>
  </g>
 </g>
</svg>
